<svg width="29" height="16" viewBox="0 0 29 16" fill="none" xmlns="http://www.w3.org/2000/svg">
<path d="M29 0.967739C29 0.711079 28.898 0.464931 28.7166 0.283445C28.5351 0.101958 28.2889 0 28.0323 0H20.0484C19.7917 0 19.5456 0.101958 19.3641 0.283445C19.1826 0.464931 19.0807 0.711079 19.0807 0.967739C19.0807 1.2244 19.1826 1.47055 19.3641 1.65203C19.5456 1.83352 19.7917 1.93548 20.0484 1.93548H25.6758L17.6484 9.87094L10.3275 4.65483C10.1396 4.52096 9.91008 4.45862 9.6803 4.47902C9.45052 4.49943 9.23559 4.60124 9.07424 4.76612L0.243619 13.8387C0.078643 14.0248 -0.00836852 14.2672 0.000635093 14.5157C0.0096387 14.7642 0.113966 14.9997 0.291975 15.1734C0.469983 15.347 0.708009 15.4455 0.956673 15.4484C1.20534 15.4512 1.44555 15.3582 1.62749 15.1887L9.8823 6.71127L17.1887 11.9177C17.3747 12.0502 17.6015 12.1127 17.8291 12.0941C18.0566 12.0755 18.2703 11.977 18.4323 11.8161L27.0645 3.28548V8.95159C27.0645 9.20825 27.1665 9.4544 27.348 9.63589C27.5295 9.81737 27.7756 9.91933 28.0323 9.91933C28.2889 9.91933 28.5351 9.81737 28.7166 9.63589C28.898 9.4544 29 9.20825 29 8.95159V0.967739Z" fill="white"/>
</svg>
