<svg width="275" height="151" viewBox="0 0 275 151" fill="none" xmlns="http://www.w3.org/2000/svg">
<path d="M29.3135 72.2063H71.0243V88.3444H29.3135V72.2063ZM30.8031 120H10.6926V33.1024H76.3623V49.2405H30.8031V120ZM74.9192 120L113.651 33.1024H133.513L172.369 120H151.265L119.485 43.2818H127.43L95.5263 120H74.9192ZM94.2849 101.379L99.6229 86.1099H144.313L149.775 101.379H94.2849ZM222.255 121.49C215.469 121.49 209.138 120.372 203.262 118.138C197.469 115.903 192.42 112.759 188.117 108.703C183.896 104.648 180.586 99.8894 178.186 94.4273C175.868 88.9651 174.71 83.0064 174.71 76.5512C174.71 70.0959 175.868 64.1373 178.186 58.6751C180.586 53.213 183.938 48.4543 188.241 44.3991C192.545 40.3439 197.593 37.199 203.386 34.9645C209.179 32.73 215.469 31.6127 222.255 31.6127C229.124 31.6127 235.414 32.73 241.124 34.9645C246.918 37.199 251.925 40.3439 256.145 44.3991C260.449 48.3715 263.801 53.0888 266.201 58.551C268.601 64.0131 269.801 70.0132 269.801 76.5512C269.801 83.0064 268.601 89.0065 266.201 94.5514C263.801 100.014 260.449 104.772 256.145 108.827C251.925 112.8 246.918 115.903 241.124 118.138C235.414 120.372 229.124 121.49 222.255 121.49ZM250.683 139.986C247.29 139.986 244.062 139.614 241 138.869C238.021 138.124 235.042 136.924 232.062 135.269C229.166 133.614 226.104 131.379 222.876 128.566C219.731 125.752 216.297 122.276 212.572 118.138L233.676 112.8C235.911 115.862 237.98 118.303 239.883 120.124C241.786 121.945 243.607 123.228 245.345 123.972C247.166 124.717 249.069 125.09 251.056 125.09C256.352 125.09 261.069 122.938 265.207 118.634L274.146 129.31C268.27 136.428 260.449 139.986 250.683 139.986ZM222.255 104.358C226.145 104.358 229.704 103.696 232.931 102.372C236.242 101.048 239.138 99.1446 241.621 96.6618C244.104 94.179 246.007 91.241 247.331 87.8479C248.738 84.372 249.442 80.6064 249.442 76.5512C249.442 72.4132 248.738 68.6477 247.331 65.2545C246.007 61.8614 244.104 58.9234 241.621 56.4406C239.138 53.9578 236.242 52.0543 232.931 50.7302C229.704 49.406 226.145 48.744 222.255 48.744C218.366 48.744 214.765 49.406 211.455 50.7302C208.145 52.0543 205.248 53.9578 202.765 56.4406C200.365 58.9234 198.462 61.8614 197.055 65.2545C195.731 68.6477 195.069 72.4132 195.069 76.5512C195.069 80.6064 195.731 84.372 197.055 87.8479C198.462 91.241 200.365 94.179 202.765 96.6618C205.248 99.1446 208.145 101.048 211.455 102.372C214.765 103.696 218.366 104.358 222.255 104.358Z" fill="url(#paint0_linear_1_548)"/>
<path d="M65.5019 74.207V54.0763H73.3529C75.1168 54.0763 76.6218 54.3543 77.868 54.9103C79.1141 55.4663 80.0727 56.2715 80.7438 57.326C81.4148 58.3805 81.7503 59.6362 81.7503 61.0933C81.7503 62.5504 81.4148 63.8062 80.7438 64.8606C80.0727 65.8959 79.1141 66.7011 77.868 67.2763C76.6218 67.8323 75.1168 68.1103 73.3529 68.1103H67.0836L68.3778 66.7587V74.207H65.5019ZM68.3778 67.0462L67.0836 65.6083H73.2666C75.1072 65.6083 76.4971 65.2153 77.4366 64.4293C78.3952 63.6432 78.8745 62.5312 78.8745 61.0933C78.8745 59.6554 78.3952 58.5434 77.4366 57.7574C76.4971 56.9713 75.1072 56.5783 73.2666 56.5783H67.0836L68.3778 55.1404V67.0462ZM92.3034 74.3796C90.6738 74.3796 89.2359 74.0441 87.9897 73.373C86.7627 72.702 85.8041 71.7818 85.1139 70.6123C84.4429 69.4428 84.1074 68.1007 84.1074 66.5861C84.1074 65.0715 84.4333 63.7295 85.0851 62.56C85.7562 61.3905 86.6668 60.4798 87.8172 59.8279C88.9867 59.1569 90.2999 58.8214 91.757 58.8214C93.2333 58.8214 94.537 59.1473 95.6681 59.7992C96.7993 60.451 97.6812 61.3713 98.3139 62.56C98.9657 63.7295 99.2917 65.1003 99.2917 66.6724C99.2917 66.7874 99.2821 66.9216 99.2629 67.075C99.2629 67.2284 99.2533 67.3722 99.2341 67.5064H86.2642V65.5221H97.7962L96.6747 66.2123C96.6938 65.2345 96.4925 64.3622 96.0707 63.5953C95.649 62.8284 95.0642 62.234 94.3165 61.8123C93.588 61.3713 92.7348 61.1508 91.757 61.1508C90.7984 61.1508 89.9453 61.3713 89.1975 61.8123C88.4498 62.234 87.8651 62.838 87.4433 63.624C87.0215 64.3909 86.8106 65.2728 86.8106 66.2698V66.7299C86.8106 67.746 87.0407 68.6567 87.5008 69.4619C87.9801 70.248 88.6416 70.8615 89.4851 71.3025C90.3287 71.7434 91.2969 71.9639 92.3897 71.9639C93.2908 71.9639 94.1056 71.8105 94.8341 71.5038C95.5819 71.197 96.2337 70.7369 96.7897 70.1234L98.3139 71.9064C97.6237 72.7116 96.7609 73.3251 95.7257 73.7469C94.7095 74.1687 93.5688 74.3796 92.3034 74.3796ZM103.125 74.207V58.9652H105.771V63.1064L105.512 62.0711C105.934 61.0166 106.643 60.2114 107.64 59.6554C108.637 59.0994 109.864 58.8214 111.321 58.8214V61.4959C111.206 61.4767 111.091 61.4672 110.976 61.4672C110.88 61.4672 110.785 61.4672 110.689 61.4672C109.212 61.4672 108.043 61.9081 107.18 62.79C106.317 63.672 105.886 64.9469 105.886 66.6149V74.207H103.125ZM121.255 79.9587C119.856 79.9587 118.495 79.7574 117.172 79.3547C115.868 78.9713 114.804 78.4153 113.98 77.6868L115.303 75.5587C116.012 76.1722 116.884 76.6515 117.92 76.9966C118.955 77.3608 120.038 77.543 121.169 77.543C122.971 77.543 124.294 77.1212 125.138 76.2776C125.981 75.434 126.403 74.1495 126.403 72.424V69.2031L126.691 66.1835L126.547 63.1351V58.9652H129.164V72.1364C129.164 74.8205 128.493 76.7953 127.151 78.0606C125.809 79.326 123.844 79.9587 121.255 79.9587ZM120.91 73.5744C119.434 73.5744 118.111 73.2676 116.942 72.6541C115.791 72.0214 114.871 71.1491 114.181 70.0371C113.51 68.9251 113.174 67.6406 113.174 66.1835C113.174 64.7072 113.51 63.4227 114.181 62.3299C114.871 61.2179 115.791 60.3552 116.942 59.7417C118.111 59.1282 119.434 58.8214 120.91 58.8214C122.214 58.8214 123.403 59.0898 124.476 59.6266C125.55 60.1443 126.403 60.9495 127.036 62.0423C127.688 63.1351 128.014 64.5155 128.014 66.1835C128.014 67.8323 127.688 69.2031 127.036 70.2959C126.403 71.3887 125.55 72.2131 124.476 72.7691C123.403 73.3059 122.214 73.5744 120.91 73.5744ZM121.227 71.1587C122.243 71.1587 123.144 70.9478 123.93 70.526C124.716 70.1042 125.33 69.5194 125.771 68.7717C126.231 68.024 126.461 67.1613 126.461 66.1835C126.461 65.2057 126.231 64.343 125.771 63.5953C125.33 62.8476 124.716 62.2724 123.93 61.8698C123.144 61.448 122.243 61.2371 121.227 61.2371C120.211 61.2371 119.3 61.448 118.495 61.8698C117.709 62.2724 117.086 62.8476 116.625 63.5953C116.184 64.343 115.964 65.2057 115.964 66.1835C115.964 67.1613 116.184 68.024 116.625 68.7717C117.086 69.5194 117.709 70.1042 118.495 70.526C119.3 70.9478 120.211 71.1587 121.227 71.1587ZM140.852 74.3796C139.548 74.3796 138.398 74.1399 137.401 73.6606C136.423 73.1813 135.657 72.4528 135.101 71.475C134.564 70.4781 134.295 69.2319 134.295 67.7364V58.9652H137.056V67.4201C137.056 68.9155 137.411 70.0371 138.12 70.7848C138.849 71.5325 139.865 71.9064 141.169 71.9064C142.127 71.9064 142.961 71.7147 143.67 71.3312C144.38 70.9286 144.926 70.3534 145.31 69.6057C145.693 68.8388 145.885 67.9186 145.885 66.8449V58.9652H148.646V74.207H146.029V70.0946L146.46 71.1874C145.962 72.2035 145.214 72.9896 144.217 73.5456C143.22 74.1016 142.098 74.3796 140.852 74.3796ZM162.04 58.8214C163.286 58.8214 164.379 59.0611 165.318 59.5404C166.277 60.0197 167.025 60.7482 167.562 61.726C168.098 62.7038 168.367 63.9404 168.367 65.4358V74.207H165.606V65.7521C165.606 64.2759 165.242 63.1639 164.513 62.4162C163.804 61.6685 162.797 61.2946 161.494 61.2946C160.516 61.2946 159.663 61.4863 158.934 61.8698C158.206 62.2532 157.64 62.8188 157.237 63.5665C156.854 64.3142 156.662 65.2441 156.662 66.3561V74.207H153.901V58.9652H156.547V63.0776L156.116 61.9848C156.614 60.9879 157.381 60.2114 158.416 59.6554C159.452 59.0994 160.66 58.8214 162.04 58.8214ZM178.71 74.3796C177.176 74.3796 175.988 73.9674 175.144 73.143C174.3 72.3186 173.879 71.1395 173.879 69.6057V55.6293H176.639V69.4907C176.639 70.3151 176.841 70.9478 177.243 71.3887C177.665 71.8297 178.259 72.0502 179.026 72.0502C179.889 72.0502 180.608 71.8105 181.183 71.3312L182.046 73.3155C181.624 73.6798 181.116 73.9482 180.522 74.1208C179.947 74.2933 179.343 74.3796 178.71 74.3796ZM171.29 61.2371V58.9652H181.011V61.2371H171.29ZM194.845 74.207V70.9861L194.701 70.3822V64.8894C194.701 63.7199 194.356 62.8188 193.666 62.1861C192.995 61.5343 191.979 61.2083 190.618 61.2083C189.717 61.2083 188.835 61.3617 187.972 61.6685C187.109 61.9561 186.381 62.3491 185.786 62.8476L184.636 60.777C185.422 60.1443 186.362 59.665 187.454 59.3391C188.566 58.994 189.726 58.8214 190.934 58.8214C193.024 58.8214 194.634 59.3295 195.765 60.3456C196.897 61.3617 197.462 62.9147 197.462 65.0044V74.207H194.845ZM189.841 74.3796C188.71 74.3796 187.713 74.1879 186.85 73.8044C186.007 73.421 185.355 72.8937 184.895 72.2227C184.435 71.5325 184.205 70.7561 184.205 69.8933C184.205 69.0689 184.396 68.3212 184.78 67.6502C185.182 66.9791 185.825 66.4423 186.707 66.0397C187.608 65.6371 188.816 65.4358 190.33 65.4358H195.162V67.4201H190.445C189.065 67.4201 188.135 67.6502 187.656 68.1103C187.176 68.5704 186.937 69.1264 186.937 69.7783C186.937 70.526 187.234 71.1299 187.828 71.59C188.423 72.031 189.247 72.2515 190.301 72.2515C191.337 72.2515 192.238 72.0214 193.005 71.5613C193.791 71.1011 194.356 70.4301 194.701 69.5482L195.248 71.4462C194.884 72.3473 194.241 73.0663 193.321 73.6031C192.401 74.1208 191.241 74.3796 189.841 74.3796ZM206.942 74.3796C205.677 74.3796 204.469 74.207 203.319 73.8619C202.188 73.5168 201.296 73.095 200.644 72.5966L201.795 70.411C202.447 70.8519 203.252 71.2258 204.21 71.5325C205.169 71.8393 206.147 71.9927 207.144 71.9927C208.428 71.9927 209.349 71.8105 209.905 71.4462C210.48 71.082 210.767 70.5739 210.767 69.9221C210.767 69.4428 210.595 69.0689 210.25 68.8005C209.905 68.5321 209.444 68.3308 208.869 68.1966C208.313 68.0624 207.69 67.9473 207 67.8515C206.31 67.7364 205.62 67.6022 204.929 67.4489C204.239 67.2763 203.607 67.0462 203.031 66.7587C202.456 66.4519 201.996 66.0397 201.651 65.5221C201.306 64.9852 201.133 64.2759 201.133 63.394C201.133 62.4737 201.392 61.6685 201.91 60.9783C202.427 60.2881 203.156 59.7608 204.095 59.3966C205.054 59.0131 206.185 58.8214 207.489 58.8214C208.486 58.8214 209.492 58.946 210.508 59.1953C211.544 59.4253 212.387 59.7608 213.039 60.2018L211.86 62.3874C211.17 61.9273 210.451 61.611 209.703 61.4384C208.956 61.2659 208.208 61.1796 207.46 61.1796C206.252 61.1796 205.351 61.3809 204.757 61.7835C204.163 62.1669 203.865 62.6654 203.865 63.2789C203.865 63.7966 204.038 64.1992 204.383 64.4868C204.747 64.7552 205.207 64.9661 205.763 65.1194C206.339 65.2728 206.971 65.407 207.661 65.5221C208.352 65.6179 209.042 65.7521 209.732 65.9247C210.422 66.0781 211.045 66.2985 211.601 66.5861C212.176 66.8737 212.637 67.2763 212.982 67.794C213.346 68.3116 213.528 69.0018 213.528 69.8645C213.528 70.7848 213.26 71.5805 212.723 72.2515C212.186 72.9225 211.429 73.4497 210.451 73.8332C209.473 74.1974 208.304 74.3796 206.942 74.3796ZM60.676 88.5953H71.0577V91.0685H60.676V88.5953ZM60.9635 99.207H58.0877V79.0763H72.2943V81.5783H60.9635V99.207ZM75.659 99.207V83.9652H78.3047V88.1064L78.0459 87.0711C78.4677 86.0166 79.177 85.2114 80.174 84.6554C81.1709 84.0994 82.398 83.8214 83.855 83.8214V86.4959C83.74 86.4767 83.625 86.4672 83.5099 86.4672C83.4141 86.4672 83.3182 86.4672 83.2224 86.4672C81.7461 86.4672 80.5766 86.9081 79.7139 87.79C78.8511 88.672 78.4197 89.9469 78.4197 91.6149V99.207H75.659ZM93.9042 99.3796C92.2746 99.3796 90.8367 99.0441 89.5905 98.373C88.3635 97.702 87.4049 96.7818 86.7147 95.6123C86.0437 94.4428 85.7081 93.1007 85.7081 91.5861C85.7081 90.0715 86.0341 88.7295 86.6859 87.56C87.357 86.3905 88.2676 85.4798 89.418 84.8279C90.5875 84.1569 91.9007 83.8214 93.3578 83.8214C94.8341 83.8214 96.1378 84.1473 97.2689 84.7992C98.4001 85.451 99.282 86.3713 99.9147 87.56C100.567 88.7295 100.892 90.1003 100.892 91.6724C100.892 91.7874 100.883 91.9216 100.864 92.075C100.864 92.2284 100.854 92.3722 100.835 92.5064H87.865V90.5221H99.397L98.2755 91.2123C98.2946 90.2345 98.0933 89.3622 97.6715 88.5953C97.2498 87.8284 96.665 87.234 95.9173 86.8123C95.1888 86.3713 94.3356 86.1508 93.3578 86.1508C92.3992 86.1508 91.5461 86.3713 90.7983 86.8123C90.0506 87.234 89.4659 87.838 89.0441 88.624C88.6223 89.3909 88.4114 90.2728 88.4114 91.2698V91.7299C88.4114 92.746 88.6415 93.6567 89.1016 94.4619C89.5809 95.248 90.2424 95.8615 91.0859 96.3025C91.9295 96.7434 92.8977 96.9639 93.9905 96.9639C94.8916 96.9639 95.7064 96.8105 96.4349 96.5038C97.1827 96.197 97.8345 95.7369 98.3905 95.1234L99.9147 96.9064C99.2245 97.7116 98.3617 98.3251 97.3264 98.7469C96.3103 99.1687 95.1696 99.3796 93.9042 99.3796ZM111.024 99.3796C109.548 99.3796 108.225 99.0537 107.055 98.4018C105.905 97.75 104.994 96.8393 104.323 95.6698C103.652 94.5003 103.317 93.1391 103.317 91.5861C103.317 90.0332 103.652 88.6815 104.323 87.5312C104.994 86.3617 105.905 85.451 107.055 84.7992C108.225 84.1473 109.548 83.8214 111.024 83.8214C112.347 83.8214 113.526 84.109 114.561 84.6842C115.597 85.2593 116.411 86.1221 117.006 87.2724C117.619 88.4227 117.926 89.8606 117.926 91.5861C117.926 93.3116 117.61 94.7495 116.977 95.8998C116.364 97.0502 115.539 97.9225 114.504 98.5168C113.469 99.092 112.309 99.3796 111.024 99.3796ZM111.254 96.9639C112.213 96.9639 113.076 96.7434 113.842 96.3025C114.628 95.8615 115.242 95.2384 115.683 94.4332C116.143 93.6088 116.373 92.6598 116.373 91.5861C116.373 90.4933 116.143 89.5539 115.683 88.7678C115.242 87.9626 114.628 87.3395 113.842 86.8985C113.076 86.4576 112.213 86.2371 111.254 86.2371C110.276 86.2371 109.404 86.4576 108.637 86.8985C107.87 87.3395 107.257 87.9626 106.797 88.7678C106.337 89.5539 106.106 90.4933 106.106 91.5861C106.106 92.6598 106.337 93.6088 106.797 94.4332C107.257 95.2384 107.87 95.8615 108.637 96.3025C109.404 96.7434 110.276 96.9639 111.254 96.9639ZM116.344 104.786V95.1521L116.632 91.6149L116.459 88.0776V83.9652H119.105V104.786H116.344ZM130.742 99.3796C129.438 99.3796 128.288 99.1399 127.291 98.6606C126.313 98.1813 125.546 97.4528 124.99 96.475C124.453 95.4781 124.185 94.2319 124.185 92.7364V83.9652H126.946V92.4201C126.946 93.9155 127.3 95.0371 128.01 95.7848C128.738 96.5325 129.755 96.9064 131.058 96.9064C132.017 96.9064 132.851 96.7147 133.56 96.3312C134.27 95.9286 134.816 95.3534 135.199 94.6057C135.583 93.8388 135.775 92.9186 135.775 91.8449V83.9652H138.535V99.207H135.918V95.0946L136.35 96.1874C135.851 97.2035 135.104 97.9896 134.107 98.5456C133.11 99.1016 131.988 99.3796 130.742 99.3796ZM150.578 99.3796C148.948 99.3796 147.511 99.0441 146.264 98.373C145.037 97.702 144.079 96.7818 143.388 95.6123C142.717 94.4428 142.382 93.1007 142.382 91.5861C142.382 90.0715 142.708 88.7295 143.36 87.56C144.031 86.3905 144.941 85.4798 146.092 84.8279C147.261 84.1569 148.575 83.8214 150.032 83.8214C151.508 83.8214 152.812 84.1473 153.943 84.7992C155.074 85.451 155.956 86.3713 156.588 87.56C157.24 88.7295 157.566 90.1003 157.566 91.6724C157.566 91.7874 157.557 91.9216 157.538 92.075C157.538 92.2284 157.528 92.3722 157.509 92.5064H144.539V90.5221H156.071L154.949 91.2123C154.968 90.2345 154.767 89.3622 154.345 88.5953C153.924 87.8284 153.339 87.234 152.591 86.8123C151.863 86.3713 151.009 86.1508 150.032 86.1508C149.073 86.1508 148.22 86.3713 147.472 86.8123C146.724 87.234 146.14 87.838 145.718 88.624C145.296 89.3909 145.085 90.2728 145.085 91.2698V91.7299C145.085 92.746 145.315 93.6567 145.775 94.4619C146.255 95.248 146.916 95.8615 147.76 96.3025C148.603 96.7434 149.572 96.9639 150.664 96.9639C151.565 96.9639 152.38 96.8105 153.109 96.5038C153.856 96.197 154.508 95.7369 155.064 95.1234L156.588 96.9064C155.898 97.7116 155.036 98.3251 154 98.7469C152.984 99.1687 151.843 99.3796 150.578 99.3796ZM169.538 83.8214C170.785 83.8214 171.877 84.0611 172.817 84.5404C173.775 85.0197 174.523 85.7482 175.06 86.726C175.597 87.7038 175.865 88.9404 175.865 90.4358V99.207H173.104V90.7521C173.104 89.2759 172.74 88.1639 172.012 87.4162C171.302 86.6685 170.296 86.2946 168.992 86.2946C168.014 86.2946 167.161 86.4863 166.433 86.8698C165.704 87.2532 165.138 87.8188 164.736 88.5665C164.352 89.3142 164.161 90.2441 164.161 91.3561V99.207H161.4V83.9652H164.046V88.0776L163.614 86.9848C164.113 85.9879 164.88 85.2114 165.915 84.6554C166.95 84.0994 168.158 83.8214 169.538 83.8214ZM186.209 99.3796C184.675 99.3796 183.486 98.9674 182.643 98.143C181.799 97.3186 181.377 96.1395 181.377 94.6057V80.6293H184.138V94.4907C184.138 95.3151 184.339 95.9478 184.742 96.3887C185.164 96.8297 185.758 97.0502 186.525 97.0502C187.388 97.0502 188.107 96.8105 188.682 96.3312L189.544 98.3155C189.123 98.6798 188.615 98.9482 188.02 99.1208C187.445 99.2933 186.841 99.3796 186.209 99.3796ZM178.789 86.2371V83.9652H188.509V86.2371H178.789ZM199.164 99.3796C197.534 99.3796 196.096 99.0441 194.85 98.373C193.623 97.702 192.664 96.7818 191.974 95.6123C191.303 94.4428 190.968 93.1007 190.968 91.5861C190.968 90.0715 191.293 88.7295 191.945 87.56C192.616 86.3905 193.527 85.4798 194.677 84.8279C195.847 84.1569 197.16 83.8214 198.617 83.8214C200.093 83.8214 201.397 84.1473 202.528 84.7992C203.659 85.451 204.541 86.3713 205.174 87.56C205.826 88.7295 206.152 90.1003 206.152 91.6724C206.152 91.7874 206.142 91.9216 206.123 92.075C206.123 92.2284 206.114 92.3722 206.094 92.5064H193.124V90.5221H204.656L203.535 91.2123C203.554 90.2345 203.353 89.3622 202.931 88.5953C202.509 87.8284 201.924 87.234 201.177 86.8123C200.448 86.3713 199.595 86.1508 198.617 86.1508C197.659 86.1508 196.805 86.3713 196.058 86.8123C195.31 87.234 194.725 87.838 194.303 88.624C193.882 89.3909 193.671 90.2728 193.671 91.2698V91.7299C193.671 92.746 193.901 93.6567 194.361 94.4619C194.84 95.248 195.502 95.8615 196.345 96.3025C197.189 96.7434 198.157 96.9639 199.25 96.9639C200.151 96.9639 200.966 96.8105 201.694 96.5038C202.442 96.197 203.094 95.7369 203.65 95.1234L205.174 96.9064C204.484 97.7116 203.621 98.3251 202.586 98.7469C201.57 99.1687 200.429 99.3796 199.164 99.3796ZM214.357 99.3796C213.091 99.3796 211.883 99.207 210.733 98.8619C209.602 98.5168 208.711 98.095 208.059 97.5966L209.209 95.411C209.861 95.8519 210.666 96.2258 211.625 96.5325C212.583 96.8393 213.561 96.9927 214.558 96.9927C215.843 96.9927 216.763 96.8105 217.319 96.4462C217.894 96.082 218.182 95.5739 218.182 94.9221C218.182 94.4428 218.009 94.0689 217.664 93.8005C217.319 93.5321 216.859 93.3308 216.283 93.1966C215.727 93.0624 215.104 92.9473 214.414 92.8515C213.724 92.7364 213.034 92.6022 212.344 92.4489C211.653 92.2763 211.021 92.0462 210.446 91.7587C209.87 91.4519 209.41 91.0397 209.065 90.5221C208.72 89.9852 208.548 89.2759 208.548 88.394C208.548 87.4737 208.806 86.6685 209.324 85.9783C209.842 85.2881 210.57 84.7608 211.51 84.3966C212.468 84.0131 213.599 83.8214 214.903 83.8214C215.9 83.8214 216.907 83.946 217.923 84.1953C218.958 84.4253 219.802 84.7608 220.453 85.2018L219.274 87.3874C218.584 86.9273 217.865 86.611 217.117 86.4384C216.37 86.2659 215.622 86.1796 214.874 86.1796C213.666 86.1796 212.765 86.3809 212.171 86.7835C211.577 87.1669 211.28 87.6654 211.28 88.2789C211.28 88.7966 211.452 89.1992 211.797 89.4868C212.161 89.7552 212.622 89.9661 213.178 90.1194C213.753 90.2728 214.385 90.407 215.076 90.5221C215.766 90.6179 216.456 90.7521 217.146 90.9247C217.836 91.0781 218.46 91.2985 219.016 91.5861C219.591 91.8737 220.051 92.2763 220.396 92.794C220.76 93.3116 220.942 94.0018 220.942 94.8645C220.942 95.7848 220.674 96.5805 220.137 97.2515C219.6 97.9225 218.843 98.4497 217.865 98.8332C216.887 99.1974 215.718 99.3796 214.357 99.3796Z" fill="white"/>
<defs>
<linearGradient id="paint0_linear_1_548" x1="-285.185" y1="75.5" x2="539.815" y2="75.5" gradientUnits="userSpaceOnUse">
<stop stop-color="#3DA1DD"/>
<stop offset="1" stop-opacity="0"/>
</linearGradient>
</defs>
</svg>
