<svg width="33" height="33" viewBox="0 0 33 33" fill="none" xmlns="http://www.w3.org/2000/svg">
<path d="M30.8478 12.913H28.1619C27.9367 12.1777 27.6418 11.4675 27.2838 10.791L29.1813 8.8935C29.5874 8.48746 29.8112 7.94654 29.8112 7.37048C29.8112 6.79513 29.5874 6.25422 29.1813 5.84817L27.1511 3.81796C26.3397 3.00659 24.9193 3.00443 24.1065 3.81796L22.209 5.71546C21.5309 5.35654 20.8204 5.06254 20.087 4.83737V2.15217C20.087 0.965609 19.1213 0 17.9348 0H15.0652C13.8787 0 12.913 0.965609 12.913 2.15217V4.83809C12.1777 5.06407 11.4675 5.3582 10.791 5.71617L8.89278 3.81867C8.05343 2.97933 6.68752 2.97933 5.84817 3.81867L3.81724 5.84889C2.97861 6.68824 2.97861 8.05415 3.81724 8.8935L5.71474 10.7917C5.35583 11.4698 5.06182 12.1803 4.83665 12.9138H2.15217C0.965609 12.9138 0 13.8794 0 15.0659V17.9355C0 19.1213 0.965609 20.087 2.15217 20.087H4.83809C5.06407 20.8223 5.3582 21.5325 5.71617 22.209L3.81867 24.1072C2.97933 24.9466 2.97933 26.3125 3.81867 27.1518L5.84889 29.1828C6.68824 30.0214 8.05415 30.0214 8.8935 29.1828L10.7917 27.2853C11.4698 27.6442 12.1803 27.9382 12.9138 28.1633V30.8478C12.9138 32.0344 13.8794 33 15.0659 33H17.9355C19.1221 33 20.0877 32.0344 20.0877 30.8478V28.1619C20.823 27.9359 21.5339 27.6418 22.2097 27.2838L24.1072 29.182C24.9207 29.9948 26.3412 29.9934 27.1518 29.182L29.182 27.1518C29.5881 26.7458 29.8119 26.2049 29.8119 25.6295C29.8119 25.0535 29.5881 24.5133 29.182 24.1072L27.2845 22.209C27.6435 21.5309 27.9375 20.8204 28.1626 20.087H30.8478C32.0344 20.087 33 19.1213 33 17.9348V15.0652C33 13.8787 32.0344 12.913 30.8478 12.913ZM31.5652 17.9348C31.5652 18.3301 31.2438 18.6522 30.8478 18.6522H27.6196C27.4606 18.6522 27.3061 18.7051 27.1804 18.8025C27.0547 18.8999 26.9649 19.0363 26.9251 19.1902C26.6712 20.1695 26.2845 21.1042 25.7744 21.968C25.6938 22.105 25.6609 22.2649 25.6809 22.4226C25.7009 22.5804 25.7726 22.727 25.8849 22.8396L28.1662 25.1216C28.233 25.1882 28.2859 25.2674 28.3219 25.3546C28.3578 25.4418 28.3761 25.5352 28.3757 25.6295C28.3757 25.8225 28.3011 26.0026 28.1662 26.1374L26.136 28.1677C25.8663 28.4374 25.3906 28.4374 25.1202 28.1677L22.8389 25.8863C22.6079 25.6546 22.2492 25.6102 21.9665 25.7759C21.1042 26.2852 20.1695 26.6726 19.1895 26.9258C19.0357 26.9655 18.8995 27.0552 18.8022 27.1808C18.7049 27.3064 18.6521 27.4607 18.6522 27.6196V30.8478C18.6522 31.2431 18.3308 31.5652 17.9348 31.5652H15.0652C14.6699 31.5652 14.3478 31.2431 14.3478 30.8478V27.6196C14.3478 27.4606 14.2949 27.3061 14.1975 27.1804C14.1001 27.0547 13.9637 26.9649 13.8098 26.9251C12.8346 26.6737 11.8996 26.2866 11.032 25.7752C10.9218 25.7096 10.7959 25.6751 10.6676 25.6754C10.4818 25.6754 10.2982 25.7472 10.1597 25.8856L7.87839 28.1669C7.74351 28.3013 7.56087 28.3768 7.37048 28.3768C7.18008 28.3768 6.99745 28.3013 6.86257 28.1669L4.83235 26.1367C4.55185 25.8562 4.55185 25.4007 4.83235 25.1209L7.11365 22.8396C7.22622 22.7272 7.29817 22.5805 7.31817 22.4227C7.33817 22.2649 7.30509 22.1049 7.22413 21.968C6.71478 21.1042 6.32739 20.1702 6.07415 19.1902C6.03463 19.0363 5.945 18.8998 5.81941 18.8024C5.69381 18.705 5.53938 18.6522 5.38043 18.6522H2.15217C1.75689 18.6522 1.43478 18.3301 1.43478 17.9348V15.0652C1.43478 14.6699 1.75689 14.3478 2.15217 14.3478H5.38043C5.53944 14.3478 5.69392 14.2949 5.81961 14.1975C5.9453 14.1001 6.03509 13.9637 6.07487 13.8098C6.32627 12.8346 6.71338 11.8996 7.22485 11.032C7.30584 10.8951 7.33894 10.7351 7.31894 10.5773C7.29893 10.4195 7.22696 10.2728 7.11437 10.1604L4.83307 7.87911C4.55328 7.59933 4.55328 7.14378 4.83307 6.86328L6.86328 4.83307C7.14378 4.55257 7.59861 4.55328 7.87911 4.83307L10.1604 7.11437C10.2727 7.2271 10.4194 7.29916 10.5773 7.31917C10.7351 7.33918 10.8952 7.30599 11.032 7.22485C11.8958 6.7155 12.8298 6.32811 13.8098 6.07487C13.9637 6.03509 14.1001 5.9453 14.1975 5.81961C14.2949 5.69392 14.3478 5.53944 14.3478 5.38043V2.15217C14.3478 1.75689 14.6699 1.43478 15.0652 1.43478H17.9348C18.3308 1.43478 18.6522 1.75689 18.6522 2.15217V5.38043C18.6522 5.53944 18.7051 5.69392 18.8025 5.81961C18.8999 5.9453 19.0363 6.03509 19.1902 6.07487C20.1652 6.3262 21.1 6.71331 21.9672 7.22485C22.2499 7.39128 22.6086 7.3468 22.8396 7.11437L25.1209 4.83307C25.3913 4.56189 25.867 4.56261 26.1367 4.83307L28.1669 6.86328C28.3018 6.99815 28.3764 7.17893 28.3764 7.3712C28.3764 7.56346 28.3018 7.74424 28.1669 7.87911L25.8856 10.1604C25.7732 10.2729 25.7014 10.4196 25.6814 10.5773C25.6614 10.7351 25.6944 10.8951 25.7752 11.032C26.2852 11.8958 26.6719 12.8298 26.9258 13.8098C26.9654 13.9637 27.055 14.1002 27.1806 14.1976C27.3062 14.295 27.4606 14.3478 27.6196 14.3478H30.8478C31.2438 14.3478 31.5652 14.6699 31.5652 15.0652V17.9348Z" fill="white"/>
<path d="M16.5 10.0435C12.9403 10.0435 10.0435 12.9403 10.0435 16.5C10.0435 20.0597 12.9403 22.9565 16.5 22.9565C20.0604 22.9565 22.9565 20.0597 22.9565 16.5C22.9565 12.9403 20.0604 10.0435 16.5 10.0435ZM16.5 21.5217C13.7308 21.5217 11.4782 19.2691 11.4782 16.5C11.4782 13.7308 13.7308 11.4782 16.5 11.4782C19.2684 11.4782 21.5217 13.7308 21.5217 16.5C21.5217 19.2691 19.2684 21.5217 16.5 21.5217Z" fill="white"/>
</svg>
