<svg width="102" height="18" viewBox="0 0 102 18" fill="none" xmlns="http://www.w3.org/2000/svg">
<path d="M9.40663 1.875L7.24051 6.5541L2.32019 7.30916L5.88453 10.9969L5.0325 16.125L9.40663 13.6572L13.7817 16.125L12.9359 10.9969L16.4941 7.30916L11.601 6.5541L9.40663 1.875Z" fill="#F3C50C" stroke="#F3C50C" stroke-width="1.5" stroke-linejoin="round"/>
<path d="M31.14 1.875L28.9739 6.5541L24.0536 7.30916L27.6179 10.9969L26.7659 16.125L31.14 13.6572L35.5151 16.125L34.6693 10.9969L38.2275 7.30916L33.3344 6.5541L31.14 1.875Z" fill="#F3C50C" stroke="#F3C50C" stroke-width="1.5" stroke-linejoin="round"/>
<path d="M51.9282 1.875L49.7621 6.5541L44.8418 7.30916L48.4061 10.9969L47.5541 16.125L51.9282 13.6572L56.3033 16.125L55.4575 10.9969L59.0157 7.30916L54.1226 6.5541L51.9282 1.875Z" fill="#F3C50C" stroke="#F3C50C" stroke-width="1.5" stroke-linejoin="round"/>
<path d="M72.7167 1.875L70.5506 6.5541L65.6302 7.30916L69.1946 10.9969L68.3426 16.125L72.7167 13.6572L77.0917 16.125L76.246 10.9969L79.8041 7.30916L74.911 6.5541L72.7167 1.875Z" fill="#F3C50C" stroke="#F3C50C" stroke-width="1.5" stroke-linejoin="round"/>
<path d="M93.505 1.875L91.3389 6.5541L86.4186 7.30916L89.9829 10.9969L89.1309 16.125L93.505 13.6572L97.8801 16.125L97.0343 10.9969L100.592 7.30916L95.6994 6.5541L93.505 1.875Z" fill="#F3C50C" stroke="#F3C50C" stroke-width="1.5" stroke-linejoin="round"/>
</svg>
