<svg width="21" height="21" viewBox="0 0 21 21" fill="none" xmlns="http://www.w3.org/2000/svg">
<path d="M20.8041 13.3145L18.8356 11.3459C18.7125 11.2229 18.5457 11.1538 18.3717 11.1538C18.1977 11.1538 18.0308 11.2229 17.9078 11.3459L17.2988 11.9545L13.7315 3.03576C13.6914 2.93548 13.6271 2.84665 13.5444 2.77717C13.4617 2.70769 13.3631 2.6597 13.2574 2.63746L0.790028 0.0127434H0.786091C0.737617 0.00302086 0.688196 -0.00116177 0.638779 0.000276029C0.624671 0.000276029 0.610563 0.00290074 0.596455 0.0042131C0.56138 0.00723361 0.526601 0.0130483 0.492451 0.0216018C0.476374 0.025867 0.459642 0.0304602 0.445206 0.0357097C0.411842 0.0471517 0.379472 0.0613068 0.34842 0.0780332C0.335624 0.084923 0.322501 0.0905006 0.310033 0.0970623C0.266806 0.123582 0.226835 0.155074 0.190937 0.190896C0.155129 0.226806 0.123637 0.266776 0.0971033 0.309992C0.0895572 0.32246 0.0839797 0.335255 0.0774179 0.348051C0.0603068 0.379572 0.0459277 0.412501 0.0344382 0.446477C0.0314854 0.461241 0.0259079 0.476005 0.0219708 0.490769C0.0129646 0.525727 0.00703631 0.561406 0.00425403 0.597398C0.00425403 0.61085 0.00064505 0.623974 0.000316961 0.637753C-0.00122258 0.687267 0.0028498 0.736796 0.0124563 0.785393V0.789331L2.63717 13.2567C2.65941 13.3624 2.7074 13.461 2.77688 13.5437C2.84636 13.6264 2.93519 13.6907 3.03547 13.7308L11.9546 17.2988L11.346 17.9077C11.223 18.0308 11.1538 18.1976 11.1538 18.3716C11.1538 18.5456 11.223 18.7125 11.346 18.8356L13.3145 20.8041C13.4376 20.9271 13.6044 20.9962 13.7784 20.9962C13.9524 20.9962 14.1193 20.9271 14.2423 20.8041L20.8041 14.2423C20.9271 14.1192 20.9962 13.9524 20.9962 13.7784C20.9962 13.6044 20.9271 13.4375 20.8041 13.3145ZM3.84946 12.6435L1.75166 2.67945L6.09654 7.02434C6.12448 7.05168 6.15478 7.07649 6.18709 7.09849C5.92121 7.58373 5.83927 8.1486 5.95629 8.68939C6.07332 9.23019 6.38147 9.71064 6.82418 10.0425C7.26689 10.3745 7.81446 10.5356 8.36638 10.4963C8.9183 10.457 9.43754 10.22 9.82879 9.82875C10.22 9.4375 10.4571 8.91826 10.4963 8.36634C10.5356 7.81442 10.3745 7.26685 10.0426 6.82414C9.71068 6.38143 9.23023 6.07328 8.68943 5.95625C8.14864 5.83923 7.58377 5.92117 7.09853 6.18705C7.07653 6.15474 7.05172 6.12444 7.02438 6.0965L2.67949 1.75162L12.6436 3.84942L16.2893 12.9644L12.9644 16.2892L3.84946 12.6435ZM8.20091 7.2166C8.39558 7.2166 8.58587 7.27432 8.74774 7.38248C8.9096 7.49063 9.03575 7.64435 9.11025 7.8242C9.18475 8.00405 9.20424 8.20196 9.16626 8.39289C9.12828 8.58382 9.03454 8.7592 8.89689 8.89685C8.75924 9.0345 8.58386 9.12824 8.39293 9.16622C8.202 9.2042 8.00409 9.18471 7.82424 9.11021C7.64439 9.03571 7.49067 8.90956 7.38252 8.7477C7.27436 8.58583 7.21664 8.39554 7.21664 8.20087C7.21664 7.93982 7.32034 7.68947 7.50492 7.50488C7.68951 7.3203 7.93986 7.2166 8.20091 7.2166ZM13.7784 19.4123L12.7381 18.3716L18.3717 12.7377L19.412 13.7784L13.7784 19.4123Z" fill="white"/>
</svg>
