<svg width="15" height="15" viewBox="0 0 15 15" fill="none" xmlns="http://www.w3.org/2000/svg">
<path d="M14.7431 7.5C14.7431 8.14 14.0001 8.6675 13.8513 9.2575C13.6978 9.8675 14.0864 10.7175 13.7946 11.2513C13.4981 11.7938 12.6064 11.8588 12.1906 12.2987C11.7748 12.7387 11.7134 13.6825 11.2008 13.9963C10.6964 14.305 9.89326 13.8937 9.31685 14.0562C8.75935 14.2137 8.2609 15 7.65615 15C7.0514 15 6.55295 14.2137 5.99544 14.0562C5.41904 13.8937 4.61585 14.305 4.1115 13.9963C3.59888 13.6825 3.53746 12.7387 3.12169 12.2987C2.70592 11.8588 1.81415 11.7938 1.51768 11.2513C1.22594 10.7175 1.61454 9.8675 1.46099 9.2575C1.31216 8.6675 0.569214 8.14 0.569214 7.5C0.569214 6.86 1.31216 6.3325 1.46099 5.7425C1.61454 5.1325 1.22594 4.2825 1.51768 3.74875C1.81415 3.20625 2.70592 3.14125 3.12169 2.70125C3.53746 2.26125 3.59888 1.3175 4.1115 1.00375C4.61585 0.695 5.41904 1.10625 5.99544 0.94375C6.55295 0.78625 7.0514 0 7.65615 0C8.2609 0 8.75935 0.78625 9.31685 0.94375C9.89326 1.10625 10.6964 0.695 11.2008 1.00375C11.7134 1.3175 11.7748 2.26125 12.1906 2.70125C12.6064 3.14125 13.4981 3.20625 13.7946 3.74875C14.0864 4.2825 13.6978 5.1325 13.8513 5.7425C14.0001 6.3325 14.7431 6.86 14.7431 7.5Z" fill="#2568EF"/>
<path d="M9.70432 5.26509L7.00656 8.12009L5.60807 6.64134C5.46222 6.48708 5.26445 6.40042 5.05825 6.40042C4.85204 6.40042 4.65427 6.48708 4.50842 6.64134C4.36265 6.79569 4.28076 7.00499 4.28076 7.22322C4.28076 7.44144 4.36265 7.65074 4.50842 7.80509L6.47032 9.88134C6.61228 10.0314 6.80473 10.1157 7.00538 10.1157C7.20603 10.1157 7.39848 10.0314 7.54044 9.88134L10.8028 6.42884C10.9486 6.27449 11.0305 6.06519 11.0305 5.84697C11.0305 5.62874 10.9486 5.41944 10.8028 5.26509C10.7307 5.18872 10.6451 5.12813 10.5508 5.08679C10.4566 5.04545 10.3556 5.02417 10.2536 5.02417C10.1515 5.02417 10.0505 5.04545 9.95628 5.08679C9.86204 5.12813 9.77642 5.18872 9.70432 5.26509Z" fill="#222222"/>
</svg>
